<svg data-v-423bf9ae="" xmlns="http://www.w3.org/2000/svg" viewBox="0 0 403.6046511627907 179" class="iconAboveSlogan"><!----><!----><!----><g data-v-423bf9ae="" id="7a168e05-c448-4f1b-9dae-82ab2d8803ea" fill="#12262A" transform="matrix(4.465116500854492,0,0,4.465116500854492,-3.697687864303589,86.9186019897461)"><path d="M7.29 10.96C7.18 12.38 5.99 12.84 4.91 12.84C3.16 12.84 2.17 11.52 2.17 8.96C2.17 6.50 3.04 5.21 4.94 5.21C6.41 5.21 7.07 5.92 7.11 7.18L8.29 6.93C8.39 5.32 7.13 4.20 4.97 4.20C2.32 4.20 0.83 5.96 0.83 8.95C0.83 11.72 2.07 13.85 4.96 13.85C7.06 13.85 8.11 12.67 8.41 11.26ZM14.34 13.65L15.46 13.65L15.46 9.00C15.46 7.63 14.60 7.03 13.51 7.03C12.10 7.03 11.47 7.92 11.24 8.40L11.24 3.60L10.12 3.60L10.12 13.65L11.24 13.65L11.24 10.22C11.37 9.65 11.89 7.99 13.33 7.99C14 7.99 14.34 8.36 14.34 9.32ZM22.78 13.75L23.00 12.77C22.15 12.92 22.20 12.42 22.20 11.91L22.20 9.37C22.20 7.74 21.53 7.03 19.88 7.03C18.02 7.03 17.16 7.81 17.32 9.04L18.42 9.24C18.35 8.29 18.93 7.95 19.80 7.95C20.79 7.95 21.08 8.41 21.08 9.52L21.08 9.88C18.66 9.90 17.09 10.64 17.09 12.11C17.09 13.29 18.09 13.85 19.12 13.85C20.13 13.85 20.89 13.29 21.20 12.71C21.24 13.30 21.56 13.90 22.78 13.75ZM21.08 11.42C21.03 12.25 20.19 12.92 19.33 12.92C18.68 12.92 18.30 12.57 18.30 12.03C18.30 11.20 19.11 10.75 21.08 10.74ZM24.44 13.65L25.56 13.65L25.56 10.22C25.69 9.65 26.21 7.99 27.65 7.99C28.32 7.99 28.66 8.36 28.66 9.32L28.66 13.65L29.78 13.65L29.78 9.00C29.78 7.63 28.92 7.03 27.83 7.03C26.32 7.03 25.72 8.06 25.52 8.50L25.52 7.22L24.44 7.22ZM31.89 9.48C31.89 10.15 32.07 10.70 32.42 11.09C31.91 11.45 31.57 11.87 31.57 12.52C31.57 13.29 32.05 13.58 32.59 13.78C32.20 14.04 31.57 14.56 31.57 15.37C31.57 16.76 33.39 17.04 34.55 17.04C36.29 17.04 37.65 16.41 37.65 14.88C37.65 13.27 36.12 13.09 34.75 13.01C33.61 12.94 32.58 12.92 32.58 12.25C32.58 11.96 32.76 11.75 33.04 11.55C33.42 11.73 33.88 11.83 34.43 11.83C36.05 11.83 37.04 10.98 37.04 9.42C37.04 8.97 36.96 8.58 36.79 8.25C37.44 7.94 37.74 7.43 37.74 6.80C37.74 6.66 37.73 6.51 37.69 6.34L36.72 6.20L36.72 6.69C36.72 7.04 36.62 7.39 36.36 7.67C35.91 7.25 35.28 7.03 34.48 7.03C32.79 7.03 31.89 8.01 31.89 9.48ZM34.44 10.98C33.47 10.98 33.10 10.42 33.10 9.45C33.10 8.46 33.50 7.88 34.47 7.88C35.42 7.88 35.84 8.44 35.84 9.42C35.84 10.42 35.42 10.98 34.44 10.98ZM34.59 14.06C35.69 14.13 36.60 14.28 36.60 15.05C36.60 15.85 35.66 16.14 34.54 16.14C33.70 16.14 32.58 15.97 32.58 15.16C32.58 14.60 33.08 14.24 33.53 13.99C33.94 14.03 34.13 14.03 34.59 14.06ZM44.25 10.61L44.25 9.91C44.25 7.95 43.34 7.03 41.65 7.03C39.41 7.03 38.68 8.75 38.68 10.47C38.68 12.78 39.77 13.85 41.68 13.85C43.09 13.85 43.93 13.16 44.25 12.01L43.27 11.82C43.09 12.40 42.55 12.92 41.71 12.92C40.24 12.92 39.90 11.80 39.89 10.61ZM41.62 7.95C42.63 7.95 43.09 8.61 43.09 9.46L43.09 9.72L39.93 9.72C40.10 8.50 40.73 7.95 41.62 7.95ZM46.03 13.65L47.15 13.65L47.15 3.60L46.03 3.60ZM51.91 13.85C54.00 13.85 54.88 12.32 54.88 10.33C54.88 8.25 53.89 7.03 51.91 7.03C49.87 7.03 48.92 8.44 48.92 10.33C48.92 12.47 49.80 13.85 51.91 13.85ZM51.91 12.92C50.75 12.92 50.12 12.08 50.12 10.47C50.12 8.88 50.75 7.95 51.91 7.95C53.06 7.95 53.68 8.85 53.68 10.47C53.68 11.96 53.06 12.92 51.91 12.92ZM56.66 9.48C56.66 10.15 56.84 10.70 57.19 11.09C56.67 11.45 56.34 11.87 56.34 12.52C56.34 13.29 56.81 13.58 57.36 13.78C56.97 14.04 56.34 14.56 56.34 15.37C56.34 16.76 58.16 17.04 59.32 17.04C61.05 17.04 62.41 16.41 62.41 14.88C62.41 13.27 60.89 13.09 59.51 13.01C58.38 12.94 57.34 12.92 57.34 12.25C57.34 11.96 57.53 11.75 57.81 11.55C58.18 11.73 58.65 11.83 59.19 11.83C60.82 11.83 61.81 10.98 61.81 9.42C61.81 8.97 61.73 8.58 61.56 8.25C62.20 7.94 62.51 7.43 62.51 6.80C62.51 6.66 62.50 6.51 62.45 6.34L61.49 6.20L61.49 6.69C61.49 7.04 61.39 7.39 61.12 7.67C60.68 7.25 60.05 7.03 59.25 7.03C57.55 7.03 56.66 8.01 56.66 9.48ZM59.21 10.98C58.24 10.98 57.86 10.42 57.86 9.45C57.86 8.46 58.27 7.88 59.23 7.88C60.19 7.88 60.61 8.44 60.61 9.42C60.61 10.42 60.19 10.98 59.21 10.98ZM59.36 14.06C60.45 14.13 61.36 14.28 61.36 15.05C61.36 15.85 60.42 16.14 59.30 16.14C58.46 16.14 57.34 15.97 57.34 15.16C57.34 14.60 57.85 14.24 58.30 13.99C58.70 14.03 58.90 14.03 59.36 14.06ZM69.31 13.65L70.24 13.65L71.83 9.25C71.99 8.81 72.16 8.27 72.31 7.78L74.44 13.65L75.36 13.65L78.53 4.40L77.31 4.40L75.40 10.02C75.22 10.57 75.04 11.24 74.89 11.79C74.75 11.24 74.55 10.53 74.37 10.02L72.32 4.40L71.05 4.40L71.74 6.24L70.36 10.02C70.15 10.58 69.96 11.26 69.82 11.79C69.68 11.26 69.47 10.56 69.29 10.02L67.27 4.40L65.97 4.40ZM79.77 5.00C79.77 5.43 80.09 5.75 80.53 5.75C80.95 5.75 81.28 5.43 81.28 5.00C81.28 4.58 80.95 4.24 80.53 4.24C80.09 4.24 79.77 4.58 79.77 5.00ZM79.98 13.65L81.10 13.65L81.10 7.22L79.98 7.22ZM87.12 13.65L88.56 13.65L85.69 10.12L88.61 7.22L87.16 7.22L84.66 9.72L84.38 9.72L84.38 3.60L83.26 3.60L83.26 13.65L84.38 13.65L84.38 10.61L84.69 10.61ZM89.71 5.00C89.71 5.43 90.03 5.75 90.47 5.75C90.89 5.75 91.22 5.43 91.22 5.00C91.22 4.58 90.89 4.24 90.47 4.24C90.03 4.24 89.71 4.58 89.71 5.00ZM89.92 13.65L91.04 13.65L91.04 7.22L89.92 7.22Z"></path></g><defs data-v-423bf9ae=""><linearGradient data-v-423bf9ae="" gradientTransform="rotate(25)" id="2949a60c-f378-4f28-bd03-047a24dc0c21" x1="0%" y1="0%" x2="100%" y2="0%"><stop data-v-423bf9ae="" offset="0%" style="stop-color: rgb(32, 72, 79); stop-opacity: 1;"></stop><stop data-v-423bf9ae="" offset="100%" style="stop-color: rgb(78, 155, 171); stop-opacity: 1;"></stop></linearGradient></defs><g data-v-423bf9ae="" id="72896815-48f6-40a8-9566-5f4084204984" transform="matrix(1.4634146690368652,0,0,1.4634146690368652,128.9542694091797,-28.03658676147461)" stroke="none" fill="url(#2949a60c-f378-4f28-bd03-047a24dc0c21)"><path d="M78.8 47l-9.4-16.3c-4.1-7-11.3-11.2-19.4-11.2-8.1 0-15.4 4.2-19.4 11.2L21.2 47c-4.1 7-4.1 15.6 0 22.6 4.1 7 11.3 11.4 19.4 11.4h18.8c8.1 0 15.4-4.4 19.4-11.4 4.1-7 4.1-15.6 0-22.6zm-10.4 2c3.3 5.8 3.3 12.6 0 18.4-1.9 3.3-4.6 5.8-7.8 7.3 1.7-1.5 3.1-3.3 4.3-5.3 4.1-7 4.1-15.4 0-22.4l-3-5.2c.9.1 1.7.2 2.6.4l3.9 6.8zm-7.8-11.3c-8.1 0-15.4 4.2-19.4 11.2l-2.5 4.4c-.6-.5-1.1-1.1-1.6-1.7l4-6.9c3.3-5.8 9.3-9.2 15.9-9.2 3.9 0 7.5 1.2 10.6 3.3-2.3-.7-4.6-1.1-7-1.1zm-6.4 11.1c1.7 2.9 2.5 6.2 2.5 9.2h-5.6c-3.4 0-6.5-.8-9.3-2.4l2.8-4.7c1.7-2.9 4-5.3 6.8-6.8l2.8 4.7zm-25-4.3c.5 2.3 1.3 4.4 2.5 6.4C35.8 57.9 43 62 51.1 62h5.1c-.2 1-.4 2-.7 2h-8c-6.7 0-12.6-3.2-15.9-9-1.9-3.3-2.7-6.9-2.4-10.5zm34.5-11.9c-2.1-.7-4.4-1-6.7-1-8.1 0-15.4 4.2-19.4 11.2l-3 5.2c-.4-.8-.7-1.6-1-2.4l3.9-6.8c3.3-5.8 9.3-9.2 15.9-9.2 3.9-.1 7.4 1 10.3 3zm-38 18.2C26.2 53 27 55 28.2 57c4.1 7 11.3 11 19.4 11h6c-.5 1-1 2-1.6 3h-7.9c-6.7 0-12.6-3.7-15.9-9.5-1.9-3.2-2.8-7.1-2.5-10.7zm32 18.6c4.1-7 4.1-15.4 0-22.4l-2.5-4.4c.7-.2 1.5-.4 2.2-.5l4 6.9c3.3 5.8 3.3 12.6 0 18.4-1.9 3.4-4.8 5.9-8.1 7.5 1.6-1.6 3.2-3.4 4.4-5.5zm-7.7-46c3.8 0 7.3 1.1 10.3 3.1-2.2-.7-4.4-1-6.8-1-8.1 0-15.4 4.2-19.4 11.2L32.7 39c.1-2.5.7-5 1.9-7.4 3.5-5.1 9.1-8.2 15.4-8.2zm-25.4 44c-1.9-3.2-2.7-6.9-2.5-10.4.5 2.2 1.3 4.6 2.5 6.6C28.7 70.6 36 75 44.1 75h2.7c-2.2 1-4.7 1.6-7.4 1.8-6.2-.4-11.6-4-14.8-9.4zm50.8 0c-1.9 3.3-4.6 5.8-7.8 7.3 1.6-1.5 3.1-3.3 4.3-5.3 4.1-7 4.1-15.4 0-22.4l-1.3-2.3c2.1 1.4 4 3.2 5.4 5.4 2.7 5.4 2.5 11.8-.6 17.3z"></path></g><!----><g data-v-423bf9ae="" id="0b408ef1-643a-4b8e-b849-6e4ea832dd65" fill="#12262A" transform="matrix(0.3344934284687042,0,0,0.3344934284687042,50.900421142578125,205.10098266601562)"><path d="M0.38 12.39C0.38 12.63 0.38 12.68 0.57 12.68C0.74 12.68 1.06 12.64 1.64 12.64C2.25 12.64 2.80 12.68 2.95 12.68C3.12 12.68 3.12 12.61 3.12 12.40C3.12 12.24 3.12 12.18 2.95 12.18L1.88 12.18C1.88 12.18 1.86 12.18 1.86 12.17C1.88 11.87 2.65 9.90 3.00 9.02C3.07 8.83 3.08 8.79 3.29 8.79L6.12 8.79C6.26 8.79 6.26 8.81 6.33 9.03C6.59 9.77 7.31 11.89 7.31 12.17C7.31 12.18 7.29 12.18 7.29 12.18L6.52 12.18C6.30 12.18 6.29 12.19 6.29 12.39C6.29 12.63 6.30 12.68 6.47 12.68C6.79 12.68 7.66 12.64 8.08 12.64C8.50 12.64 9.17 12.68 9.38 12.68C9.52 12.68 9.53 12.61 9.53 12.40C9.53 12.24 9.52 12.18 9.38 12.18L8.89 12.18C8.79 12.18 7.77 9.34 7.21 7.78L5.53 3.07C5.52 3.00 5.45 2.94 5.36 2.94C5.24 2.94 5.14 3.16 5.05 3.35C4.90 3.71 4.66 3.84 4.55 4.13L3.07 7.57C2.88 8.01 1.18 12.18 1.05 12.18L0.63 12.18C0.41 12.18 0.38 12.19 0.38 12.39ZM3.28 8.33C3.28 8.30 3.30 8.23 3.35 8.13L4.72 4.77C4.76 4.66 4.79 4.61 4.82 4.61C4.83 4.61 4.84 4.63 4.89 4.77L6.05 8.18C6.08 8.25 6.09 8.29 6.09 8.32C6.09 8.36 6.06 8.37 5.96 8.37L3.46 8.37C3.28 8.37 3.28 8.34 3.28 8.33ZM27.16 7.91C27.16 11.31 29.53 12.87 32.12 12.87C33.89 12.87 35.67 11.90 35.71 11.59C35.88 10.29 35.94 9.70 35.94 9.66C35.94 9.56 35.90 9.52 35.73 9.51C35.67 9.51 35.62 9.49 35.57 9.49C35.46 9.49 35.41 9.53 35.38 9.70L35.20 11.33C35.18 11.45 34.08 12.24 32.51 12.24C30.38 12.24 28.67 10.29 28.67 7.94C28.67 5.42 30.10 3.54 32.10 3.54C33.95 3.54 35.29 5.01 35.29 5.17C35.29 5.29 35.24 6.40 35.24 6.45C35.24 6.59 35.28 6.64 35.55 6.64C35.74 6.64 35.81 6.62 35.81 6.44C35.81 5.73 35.87 3.92 35.87 3.67C35.87 3.47 35.76 3.44 35.55 3.44C35.32 3.44 35.29 3.50 35.29 3.67L35.29 4.05C35.29 4.16 35.25 4.16 35.13 4.06C34.85 3.86 33.87 3.04 32.20 3.04C29.36 3.04 27.16 4.96 27.16 7.91ZM44.32 3.51C44.32 3.75 44.41 3.77 44.58 3.77L45.11 3.77C45.16 3.77 45.16 4.12 45.16 4.55C45.16 5.66 45.15 8.96 45.15 9.42C45.15 11.13 45.40 12.80 48.26 12.80C49.34 12.80 50.50 12.38 51.16 12.00C51.41 11.86 51.70 11.72 51.79 11.72C52.05 11.72 52.32 12.74 52.65 12.74C52.98 12.74 52.99 12.35 52.99 12.25C52.99 11.96 53.05 10.08 53.09 8.16C53.14 6.12 53.13 3.77 53.24 3.77L53.56 3.77C53.79 3.77 53.86 3.75 53.86 3.56C53.86 3.32 53.82 3.26 53.62 3.26C53.48 3.26 52.95 3.30 52.53 3.30C52.11 3.30 51.31 3.26 51.09 3.26C50.90 3.26 50.81 3.28 50.81 3.51C50.81 3.75 50.92 3.77 51.09 3.77L51.79 3.77C51.86 3.77 51.87 4.30 51.87 4.87L51.87 9.14C51.87 11.19 51.87 11.12 51.53 11.34C51.14 11.61 50.33 12.08 49.15 12.08C47.18 12.08 46.38 11.17 46.38 9.41C46.38 8.82 46.45 3.77 46.56 3.77L47.47 3.77C47.70 3.77 47.74 3.75 47.74 3.56C47.74 3.32 47.73 3.26 47.53 3.26C47.21 3.26 46.33 3.30 45.91 3.30C45.49 3.30 44.80 3.26 44.58 3.26C44.39 3.26 44.32 3.28 44.32 3.51ZM61.89 3.51C61.89 3.72 61.96 3.79 62.16 3.79L62.97 3.77C63.07 3.77 63.11 6.61 63.11 8.55L63.11 10.42C63.11 11.30 63.10 12.18 63.06 12.18L62.45 12.18C62.23 12.18 62.16 12.19 62.16 12.39C62.16 12.63 62.20 12.68 62.40 12.68C62.52 12.68 63.35 12.64 63.77 12.64C64.19 12.64 64.96 12.68 65.28 12.68C65.45 12.68 65.48 12.61 65.48 12.40C65.48 12.24 65.45 12.18 65.28 12.18L64.47 12.18C64.40 12.18 64.32 9.18 64.32 8.37C64.32 8.30 64.32 8.26 64.43 8.26C64.82 8.26 65.42 8.27 65.72 8.27C67.96 8.32 68.10 10.00 68.10 11.68L68.10 12.49C68.10 12.61 68.15 12.64 68.25 12.64C68.25 12.64 69.69 12.68 70.17 12.68C70.34 12.68 70.39 12.64 70.39 12.53C70.39 12.24 70.34 12.18 70.18 12.18L69.54 12.18C69.44 12.18 69.41 12.14 69.38 11.31C69.30 8.99 67.93 8.34 67.02 8.05C66.88 8.01 66.91 8.01 67.02 7.95C67.61 7.69 68.92 6.94 68.92 5.63C68.92 3.63 67.23 3.21 65.83 3.21C65.51 3.21 64.22 3.29 63.80 3.29C63.38 3.29 62.40 3.26 62.17 3.26C61.99 3.26 61.89 3.28 61.89 3.51ZM64.32 7.80L64.32 4.40C64.32 4.05 64.34 3.68 64.39 3.68C64.60 3.65 64.88 3.65 65.10 3.65C66.40 3.65 67.65 4.47 67.65 5.82C67.65 6.99 67.10 7.57 66.44 7.88C66.40 7.90 66.36 7.90 66.29 7.90C65.81 7.88 65.10 7.88 64.50 7.87C64.33 7.87 64.32 7.85 64.32 7.80ZM77.73 12.39C77.73 12.63 77.73 12.68 77.92 12.68C78.09 12.68 78.41 12.64 78.99 12.64C79.60 12.64 80.15 12.68 80.30 12.68C80.47 12.68 80.47 12.61 80.47 12.40C80.47 12.24 80.47 12.18 80.30 12.18L79.23 12.18C79.23 12.18 79.21 12.18 79.21 12.17C79.23 11.87 80.00 9.90 80.35 9.02C80.42 8.83 80.43 8.79 80.64 8.79L83.47 8.79C83.61 8.79 83.61 8.81 83.68 9.03C83.94 9.77 84.66 11.89 84.66 12.17C84.66 12.18 84.64 12.18 84.64 12.18L83.87 12.18C83.65 12.18 83.64 12.19 83.64 12.39C83.64 12.63 83.65 12.68 83.82 12.68C84.14 12.68 85.01 12.64 85.43 12.64C85.85 12.64 86.52 12.68 86.73 12.68C86.87 12.68 86.88 12.61 86.88 12.40C86.88 12.24 86.87 12.18 86.73 12.18L86.24 12.18C86.14 12.18 85.12 9.34 84.56 7.78L82.88 3.07C82.87 3.00 82.80 2.94 82.71 2.94C82.59 2.94 82.49 3.16 82.40 3.35C82.25 3.71 82.01 3.84 81.90 4.13L80.42 7.57C80.23 8.01 78.53 12.18 78.40 12.18L77.98 12.18C77.76 12.18 77.73 12.19 77.73 12.39ZM80.63 8.33C80.63 8.30 80.65 8.23 80.70 8.13L82.07 4.77C82.11 4.66 82.14 4.61 82.17 4.61C82.18 4.61 82.19 4.63 82.24 4.77L83.40 8.18C83.43 8.25 83.44 8.29 83.44 8.32C83.44 8.36 83.41 8.37 83.31 8.37L80.81 8.37C80.63 8.37 80.63 8.34 80.63 8.33ZM92.97 5.01C92.97 5.17 93.16 5.17 93.28 5.17C93.44 5.17 93.48 5.15 93.49 4.97L93.60 3.89C93.62 3.81 94.16 3.75 94.92 3.75L96.91 3.75C96.96 3.75 96.99 4.35 96.99 4.97C96.99 6.43 96.94 12.18 96.81 12.18L95.94 12.18C95.72 12.18 95.68 12.19 95.68 12.39C95.68 12.63 95.69 12.68 95.89 12.68C96.21 12.68 97.19 12.64 97.61 12.64C98.03 12.64 98.97 12.68 99.29 12.68C99.46 12.68 99.48 12.61 99.48 12.40C99.48 12.24 99.46 12.18 99.29 12.18L98.29 12.18C98.27 12.18 98.27 11.76 98.27 11.31C98.27 9.56 98.35 5.96 98.35 5.92C98.36 5.18 98.36 3.75 98.46 3.75L100.07 3.75C100.79 3.75 101.61 3.78 101.61 3.85C101.61 3.99 101.57 4.90 101.57 4.97C101.57 5.12 101.64 5.17 101.82 5.17C102.02 5.17 102.09 5.17 102.09 5.03C102.09 3.93 102.14 3.40 102.14 3.14C102.14 2.94 102.06 2.94 101.86 2.94C101.71 2.94 101.65 2.98 101.64 3.16C101.64 3.23 101.00 3.28 100.16 3.28L95.16 3.28C94.50 3.28 93.69 3.28 93.69 3.21L93.69 3.07C93.69 2.94 93.56 2.94 93.46 2.94C93.24 2.94 93.21 3.00 93.20 3.19C93.14 3.89 92.97 4.97 92.97 5.01ZM109.90 12.39C109.90 12.63 109.93 12.68 110.12 12.68C110.45 12.68 111.41 12.64 111.83 12.64C112.25 12.64 116.76 12.68 117.08 12.68C117.21 12.68 117.36 12.66 117.36 12.49C117.36 12.07 117.40 11.23 117.40 10.53C117.40 10.39 117.25 10.39 117.12 10.39C117.01 10.39 116.89 10.39 116.89 10.51C116.87 11.06 116.87 11.41 116.84 11.76C116.82 12.01 116.82 12.04 116.72 12.04C116.56 12.04 113.93 12.08 112.43 12.08C112.36 12.08 112.32 10.11 112.28 8.26C112.28 8.06 112.32 8.09 112.46 8.09L114.74 8.09C115.44 8.09 115.47 8.20 115.47 8.30L115.47 9.00C115.47 9.14 115.65 9.14 115.77 9.14C115.86 9.14 115.99 9.13 115.99 9.02C115.99 8.83 115.96 8.33 115.96 7.83C115.96 7.32 115.99 6.83 115.99 6.71C115.99 6.59 115.85 6.58 115.75 6.58C115.64 6.58 115.47 6.59 115.47 6.72L115.47 7.45C115.47 7.62 115.02 7.63 114.74 7.63L112.41 7.63C112.29 7.63 112.28 7.63 112.28 7.45C112.27 6.75 112.25 6.06 112.25 5.46C112.25 5.12 112.25 3.71 112.34 3.71C113.57 3.71 116.07 3.75 116.07 3.81C116.07 3.99 116.03 4.83 116.03 4.89C116.03 5.04 116.10 5.10 116.28 5.10C116.48 5.10 116.55 5.08 116.55 4.94C116.55 3.85 116.61 3.36 116.61 3.09C116.61 2.91 116.52 2.90 116.33 2.90C116.13 2.90 116.13 2.95 116.10 3.11C116.09 3.25 116.16 3.25 115.25 3.25C114.63 3.25 112.49 3.29 111.72 3.29C111.23 3.29 110.29 3.25 110.19 3.25C110.07 3.25 110.01 3.30 110.01 3.49C110.01 3.72 110.08 3.74 110.25 3.74L110.91 3.74C110.96 3.74 111.03 4.79 111.03 5.71C111.03 5.80 111.09 8.27 111.09 9.83L111.09 11.17C111.09 11.84 111.06 12.18 111.03 12.18L110.18 12.18C109.96 12.18 109.90 12.21 109.90 12.39ZM125.30 12.46C125.30 12.63 125.31 12.70 125.50 12.70C125.65 12.70 126.88 12.64 127.27 12.64C128.13 12.64 129.01 12.70 129.86 12.70C132.48 12.70 134.88 11.07 134.88 7.91C134.88 4.89 132.54 3.07 129.50 3.07C128.94 3.07 127.68 3.23 126.64 3.23C126.17 3.23 125.71 3.22 125.65 3.22C125.47 3.22 125.45 3.32 125.45 3.49C125.45 3.68 125.52 3.70 125.65 3.70L126.62 3.67C126.64 3.67 126.64 4.20 126.64 4.72C126.64 5.91 126.56 12.21 126.48 12.21L125.58 12.21C125.40 12.21 125.30 12.22 125.30 12.46ZM127.88 11.40C127.88 9.46 127.88 7.52 127.89 5.60C127.89 5.03 127.93 3.61 127.97 3.60C128.27 3.53 128.86 3.51 129.21 3.51C131.77 3.51 133.38 5.75 133.38 7.73C133.38 8.95 133.34 12.25 128.66 12.25C128.39 12.25 127.99 12.25 127.89 12.21C127.88 12.19 127.88 11.79 127.88 11.40ZM142.56 14.55C142.56 14.64 142.63 14.83 142.76 14.83C142.93 14.83 144.37 13.45 144.37 12.25C144.37 11.86 143.58 11.33 143.33 11.33C143.23 11.33 142.62 11.66 142.62 11.93C142.62 12.21 143.54 12.45 143.54 13.08C143.54 13.78 142.56 14.42 142.56 14.55ZM162.27 7.91C162.27 11.31 164.64 12.87 167.23 12.87C169.01 12.87 170.79 11.90 170.83 11.59C171.00 10.29 171.05 9.70 171.05 9.66C171.05 9.56 171.01 9.52 170.84 9.51C170.79 9.51 170.73 9.49 170.69 9.49C170.58 9.49 170.52 9.53 170.49 9.70L170.31 11.33C170.30 11.45 169.19 12.24 167.62 12.24C165.49 12.24 163.79 10.29 163.79 7.94C163.79 5.42 165.21 3.54 167.22 3.54C169.06 3.54 170.41 5.01 170.41 5.17C170.41 5.29 170.35 6.40 170.35 6.45C170.35 6.59 170.39 6.64 170.66 6.64C170.86 6.64 170.93 6.62 170.93 6.44C170.93 5.73 170.98 3.92 170.98 3.67C170.98 3.47 170.87 3.44 170.66 3.44C170.44 3.44 170.41 3.50 170.41 3.67L170.41 4.05C170.41 4.16 170.37 4.16 170.24 4.06C169.96 3.86 168.98 3.04 167.31 3.04C164.47 3.04 162.27 4.96 162.27 7.91ZM179.44 12.39C179.44 12.63 179.44 12.68 179.63 12.68C179.96 12.68 180.89 12.64 181.31 12.64C181.73 12.64 182.56 12.68 182.88 12.68C183.05 12.68 183.05 12.61 183.05 12.40C183.05 12.24 183.05 12.18 182.88 12.18L181.96 12.18C181.87 12.18 181.83 9.93 181.83 8.20C181.83 8.01 181.83 8.01 181.96 8.01L187.19 8.01C187.26 8.01 187.28 8.01 187.28 8.18L187.28 9.91C187.28 11.05 187.26 12.18 187.21 12.18L186.44 12.18C186.21 12.18 186.17 12.19 186.17 12.39C186.17 12.63 186.19 12.68 186.38 12.68C186.70 12.68 187.54 12.64 187.96 12.64C188.38 12.64 188.97 12.68 189.29 12.68C189.46 12.68 189.48 12.61 189.48 12.40C189.48 12.24 189.46 12.18 189.29 12.18L188.55 12.18C188.51 12.18 188.50 9.27 188.50 7.04C188.50 5.40 188.50 3.70 188.54 3.70L189.15 3.70C189.38 3.70 189.42 3.68 189.42 3.49C189.42 3.25 189.41 3.19 189.21 3.19C189.07 3.19 188.44 3.23 187.85 3.23C187.18 3.23 186.58 3.19 186.35 3.19C186.16 3.19 186.13 3.22 186.13 3.44C186.13 3.67 186.20 3.70 186.37 3.70L187.17 3.70C187.22 3.70 187.28 4.79 187.28 5.71L187.28 7.42C187.28 7.59 187.28 7.59 187.11 7.59L182.00 7.59C181.83 7.59 181.83 7.59 181.83 7.38C181.83 6.96 181.82 6.23 181.82 5.53C181.82 4.66 181.83 3.70 181.89 3.70L182.66 3.70C182.88 3.70 182.92 3.68 182.92 3.49C182.92 3.25 182.91 3.19 182.71 3.19C182.39 3.19 181.80 3.23 181.20 3.23C180.61 3.23 180.12 3.19 179.90 3.19C179.72 3.19 179.62 3.21 179.62 3.44C179.62 3.68 179.73 3.70 179.90 3.70L180.52 3.70C180.57 3.70 180.59 5.59 180.59 7.18L180.59 8.61C180.59 10.08 180.57 12.18 180.50 12.18L179.69 12.18C179.47 12.18 179.44 12.19 179.44 12.39ZM197.51 3.51C197.51 3.72 197.58 3.79 197.78 3.79L198.59 3.77C198.69 3.77 198.73 6.61 198.73 8.55L198.73 10.42C198.73 11.30 198.72 12.18 198.67 12.18L198.07 12.18C197.85 12.18 197.78 12.19 197.78 12.39C197.78 12.63 197.82 12.68 198.02 12.68C198.14 12.68 198.97 12.64 199.39 12.64C199.81 12.64 200.58 12.68 200.90 12.68C201.07 12.68 201.10 12.61 201.10 12.40C201.10 12.24 201.07 12.18 200.90 12.18L200.09 12.18C200.02 12.18 199.93 9.18 199.93 8.37C199.93 8.30 199.93 8.26 200.05 8.26C200.44 8.26 201.04 8.27 201.33 8.27C203.57 8.32 203.71 10.00 203.71 11.68L203.71 12.49C203.71 12.61 203.77 12.64 203.87 12.64C203.87 12.64 205.31 12.68 205.79 12.68C205.95 12.68 206.01 12.64 206.01 12.53C206.01 12.24 205.95 12.18 205.80 12.18L205.16 12.18C205.06 12.18 205.03 12.14 205.00 11.31C204.92 8.99 203.55 8.34 202.64 8.05C202.50 8.01 202.52 8.01 202.64 7.95C203.22 7.69 204.54 6.94 204.54 5.63C204.54 3.63 202.85 3.21 201.45 3.21C201.12 3.21 199.84 3.29 199.42 3.29C199.00 3.29 198.02 3.26 197.79 3.26C197.61 3.26 197.51 3.28 197.51 3.51ZM199.93 7.80L199.93 4.40C199.93 4.05 199.96 3.68 200.00 3.68C200.21 3.65 200.49 3.65 200.72 3.65C202.02 3.65 203.27 4.47 203.27 5.82C203.27 6.99 202.72 7.57 202.06 7.88C202.02 7.90 201.98 7.90 201.91 7.90C201.43 7.88 200.72 7.88 200.12 7.87C199.95 7.87 199.93 7.85 199.93 7.80ZM213.42 8.15C213.42 11.17 215.75 12.80 218.01 12.80C220.79 12.80 222.77 10.89 222.77 8.06C222.77 5.33 221.02 3.11 218.22 3.11C215.61 3.11 213.42 5.10 213.42 8.15ZM214.82 7.77C214.82 5.64 216.10 3.58 218.08 3.58C220.32 3.58 221.40 5.81 221.40 7.94C221.40 10.08 220.29 12.32 218.02 12.32C216.03 12.32 214.82 10.28 214.82 7.77ZM230.87 12.39C230.87 12.63 230.89 12.68 231.08 12.68C231.27 12.68 231.64 12.64 232.26 12.64C232.89 12.64 233.45 12.68 233.77 12.68C233.94 12.68 233.94 12.61 233.94 12.40C233.94 12.24 233.94 12.18 233.77 12.18L232.57 12.18C232.53 12.18 232.51 11.54 232.51 10.79C232.51 9.46 232.53 7.48 232.53 5.99C232.53 5.25 232.53 4.84 232.54 4.28C232.54 4.02 232.61 4.14 232.74 4.28L239.62 12.66C239.71 12.75 239.79 12.89 239.90 12.89C240.02 12.89 240.09 12.77 240.09 12.54C240.09 12.39 240.25 6.65 240.27 4.48C240.27 4.06 240.30 3.70 240.32 3.70L240.95 3.70C241.18 3.70 241.23 3.68 241.23 3.49C241.23 3.25 241.23 3.19 241.04 3.19C240.84 3.19 240.41 3.23 239.85 3.23C239.23 3.23 238.43 3.19 238.34 3.19C238.17 3.19 238.17 3.26 238.17 3.47C238.17 3.64 238.17 3.70 238.34 3.70L239.64 3.70C239.65 3.70 239.65 4.33 239.65 4.44C239.65 5.85 239.68 8.33 239.68 9.70L239.68 10.29C239.68 10.57 239.67 10.65 239.44 10.37L233.76 3.39C233.65 3.25 233.62 3.19 233.45 3.19C233.37 3.19 232.99 3.23 232.68 3.23C232.39 3.23 231.31 3.19 231.11 3.19C230.94 3.19 230.92 3.26 230.92 3.47C230.92 3.64 230.94 3.70 231.11 3.70L232.02 3.70C232.02 4.17 231.98 8.53 231.91 10.79C231.88 11.69 231.90 12.18 231.78 12.18L231.14 12.18C230.92 12.18 230.87 12.19 230.87 12.39ZM249.34 8.15C249.34 11.17 251.68 12.80 253.93 12.80C256.72 12.80 258.69 10.89 258.69 8.06C258.69 5.33 256.94 3.11 254.14 3.11C251.54 3.11 249.34 5.10 249.34 8.15ZM250.74 7.77C250.74 5.64 252.03 3.58 254.00 3.58C256.24 3.58 257.32 5.81 257.32 7.94C257.32 10.08 256.21 12.32 253.95 12.32C251.96 12.32 250.74 10.28 250.74 7.77ZM266.80 12.39C266.80 12.63 266.83 12.68 267.02 12.68C267.34 12.68 268.31 12.64 268.73 12.64C269.15 12.64 273.50 12.68 273.83 12.68C274.09 12.68 274.16 12.66 274.18 12.49C274.23 12.08 274.47 10.72 274.47 10.60C274.47 10.47 274.32 10.44 274.15 10.43C274.05 10.42 273.97 10.46 273.95 10.56L273.78 11.76C273.74 12.05 273.73 12.03 273.50 12.04C273.35 12.05 270.84 12.12 269.42 12.12C269.37 12.12 269.33 11.38 269.33 10.54L269.33 6.66C269.33 5.40 269.35 3.70 269.44 3.70L270.42 3.70C270.66 3.70 270.69 3.63 270.69 3.44C270.69 3.23 270.68 3.19 270.44 3.19C270.12 3.19 269.18 3.23 268.76 3.23C268.34 3.23 267.40 3.19 267.18 3.19C266.95 3.19 266.90 3.22 266.90 3.44C266.90 3.65 266.94 3.70 267.13 3.70L267.96 3.70C268.00 3.70 268.03 4.23 268.03 4.90L268.03 8.13C268.03 10.07 268.00 12.18 267.92 12.18L267.08 12.18C266.85 12.18 266.80 12.21 266.80 12.39ZM282.02 8.15C282.02 11.17 284.35 12.80 286.61 12.80C289.39 12.80 291.37 10.89 291.37 8.06C291.37 5.33 289.62 3.11 286.82 3.11C284.21 3.11 282.02 5.10 282.02 8.15ZM283.42 7.77C283.42 5.64 284.70 3.58 286.68 3.58C288.92 3.58 290.00 5.81 290.00 7.94C290.00 10.08 288.89 12.32 286.62 12.32C284.63 12.32 283.42 10.28 283.42 7.77ZM299.54 7.91C299.54 11.40 301.91 12.89 304.50 12.89C306.39 12.89 308.39 11.89 308.39 11.58C308.39 11.12 308.41 10.68 308.41 10.33C308.41 9.81 308.42 9.56 308.55 9.56L308.98 9.56C309.12 9.56 309.13 9.39 309.13 9.30C309.13 9.18 309.12 9.06 308.98 9.06C308.76 9.06 308.39 9.10 307.72 9.10C307.27 9.10 306.53 9.07 305.84 9.06C305.70 9.06 305.70 9.24 305.70 9.35C305.70 9.45 305.73 9.56 305.86 9.56L307.08 9.56C307.12 9.56 307.17 9.87 307.17 10.33C307.17 10.82 307.16 11.41 307.13 11.65C307.12 11.76 306.47 12.39 304.89 12.39C302.65 12.39 301.06 10.29 301.06 7.94C301.06 5.42 302.61 3.54 304.61 3.54C306.50 3.54 307.68 4.87 307.68 5.03C307.68 5.15 307.62 6.12 307.62 6.17C307.62 6.31 307.66 6.36 307.93 6.36C308.13 6.36 308.20 6.33 308.20 6.15C308.20 5.43 308.24 3.75 308.24 3.56C308.24 3.36 308.14 3.33 307.93 3.33C307.71 3.33 307.68 3.39 307.68 3.56L307.68 3.91C307.68 3.99 307.64 4.02 307.51 3.92C307.23 3.72 306.24 3.08 304.67 3.08C301.83 3.08 299.54 4.79 299.54 7.91ZM317.03 12.39C317.03 12.63 317.07 12.68 317.27 12.68C317.59 12.68 318.35 12.64 319.06 12.64C319.72 12.64 320.52 12.68 320.74 12.68C320.91 12.68 320.94 12.61 320.94 12.40C320.94 12.24 320.91 12.18 320.74 12.18L319.77 12.18C319.68 12.18 319.65 9.55 319.65 7.76L319.65 5.87C319.65 5.14 319.68 3.70 319.77 3.70L320.68 3.70C320.91 3.70 320.94 3.68 320.94 3.49C320.94 3.25 320.91 3.19 320.74 3.19C320.42 3.19 319.75 3.23 319.09 3.23C318.28 3.23 317.56 3.19 317.34 3.19C317.16 3.19 317.09 3.21 317.09 3.44C317.09 3.68 317.17 3.70 317.34 3.70L318.26 3.70C318.30 3.70 318.37 4.79 318.37 5.71L318.37 7.08C318.37 8.92 318.36 12.18 318.25 12.18L317.32 12.18C317.10 12.18 317.03 12.19 317.03 12.39ZM328.90 7.91C328.90 11.31 331.27 12.87 333.86 12.87C335.64 12.87 337.41 11.90 337.46 11.59C337.62 10.29 337.68 9.70 337.68 9.66C337.68 9.56 337.64 9.52 337.47 9.51C337.41 9.51 337.36 9.49 337.32 9.49C337.20 9.49 337.15 9.53 337.12 9.70L336.94 11.33C336.92 11.45 335.82 12.24 334.25 12.24C332.12 12.24 330.41 10.29 330.41 7.94C330.41 5.42 331.84 3.54 333.84 3.54C335.69 3.54 337.04 5.01 337.04 5.17C337.04 5.29 336.98 6.40 336.98 6.45C336.98 6.59 337.02 6.64 337.29 6.64C337.48 6.64 337.55 6.62 337.55 6.44C337.55 5.73 337.61 3.92 337.61 3.67C337.61 3.47 337.50 3.44 337.29 3.44C337.06 3.44 337.04 3.50 337.04 3.67L337.04 4.05C337.04 4.16 336.99 4.16 336.87 4.06C336.59 3.86 335.61 3.04 333.94 3.04C331.10 3.04 328.90 4.96 328.90 7.91ZM345.93 12.39C345.93 12.63 345.93 12.68 346.12 12.68C346.29 12.68 346.61 12.64 347.19 12.64C347.80 12.64 348.35 12.68 348.50 12.68C348.67 12.68 348.67 12.61 348.67 12.40C348.67 12.24 348.67 12.18 348.50 12.18L347.42 12.18C347.42 12.18 347.41 12.18 347.41 12.17C347.42 11.87 348.19 9.90 348.54 9.02C348.61 8.83 348.63 8.79 348.84 8.79L351.67 8.79C351.81 8.79 351.81 8.81 351.88 9.03C352.14 9.77 352.86 11.89 352.86 12.17C352.86 12.18 352.84 12.18 352.84 12.18L352.07 12.18C351.85 12.18 351.83 12.19 351.83 12.39C351.83 12.63 351.85 12.68 352.02 12.68C352.34 12.68 353.21 12.64 353.63 12.64C354.05 12.64 354.72 12.68 354.93 12.68C355.07 12.68 355.08 12.61 355.08 12.40C355.08 12.24 355.07 12.18 354.93 12.18L354.44 12.18C354.34 12.18 353.32 9.34 352.76 7.78L351.08 3.07C351.06 3.00 350.99 2.94 350.91 2.94C350.78 2.94 350.69 3.16 350.60 3.35C350.45 3.71 350.21 3.84 350.10 4.13L348.61 7.57C348.43 8.01 346.72 12.18 346.60 12.18L346.18 12.18C345.95 12.18 345.93 12.19 345.93 12.39ZM348.82 8.33C348.82 8.30 348.85 8.23 348.89 8.13L350.27 4.77C350.31 4.66 350.34 4.61 350.36 4.61C350.38 4.61 350.39 4.63 350.43 4.77L351.60 8.18C351.62 8.25 351.64 8.29 351.64 8.32C351.64 8.36 351.61 8.37 351.51 8.37L349.01 8.37C348.82 8.37 348.82 8.34 348.82 8.33ZM362.84 12.39C362.84 12.63 362.87 12.68 363.06 12.68C363.38 12.68 364.35 12.64 364.77 12.64C365.19 12.64 369.54 12.68 369.87 12.68C370.13 12.68 370.20 12.66 370.22 12.49C370.27 12.08 370.51 10.72 370.51 10.60C370.51 10.47 370.36 10.44 370.19 10.43C370.09 10.42 370.01 10.46 369.99 10.56L369.82 11.76C369.78 12.05 369.77 12.03 369.54 12.04C369.39 12.05 366.88 12.12 365.46 12.12C365.41 12.12 365.37 11.38 365.37 10.54L365.37 6.66C365.37 5.40 365.39 3.70 365.48 3.70L366.46 3.70C366.70 3.70 366.73 3.63 366.73 3.44C366.73 3.23 366.72 3.19 366.48 3.19C366.16 3.19 365.22 3.23 364.80 3.23C364.38 3.23 363.44 3.19 363.22 3.19C362.99 3.19 362.94 3.22 362.94 3.44C362.94 3.65 362.98 3.70 363.17 3.70L364.00 3.70C364.04 3.70 364.07 4.23 364.07 4.90L364.07 8.13C364.07 10.07 364.04 12.18 363.96 12.18L363.12 12.18C362.89 12.18 362.84 12.21 362.84 12.39ZM378.13 12.39C378.13 12.63 378.15 12.68 378.35 12.68C378.67 12.68 379.64 12.64 380.06 12.64C380.48 12.64 384.83 12.68 385.15 12.68C385.42 12.68 385.49 12.66 385.50 12.49C385.56 12.08 385.80 10.72 385.80 10.60C385.80 10.47 385.64 10.44 385.48 10.43C385.38 10.42 385.29 10.46 385.28 10.56L385.11 11.76C385.07 12.05 385.06 12.03 384.83 12.04C384.68 12.05 382.17 12.12 380.74 12.12C380.70 12.12 380.66 11.38 380.66 10.54L380.66 6.66C380.66 5.40 380.67 3.70 380.77 3.70L381.75 3.70C381.99 3.70 382.02 3.63 382.02 3.44C382.02 3.23 382.00 3.19 381.77 3.19C381.44 3.19 380.51 3.23 380.09 3.23C379.67 3.23 378.73 3.19 378.50 3.19C378.28 3.19 378.22 3.22 378.22 3.44C378.22 3.65 378.27 3.70 378.46 3.70L379.29 3.70C379.33 3.70 379.36 4.23 379.36 4.90L379.36 8.13C379.36 10.07 379.33 12.18 379.25 12.18L378.41 12.18C378.18 12.18 378.13 12.21 378.13 12.39ZM392.57 3.44C392.57 3.68 392.66 3.70 392.83 3.70L393.23 3.70C393.36 3.70 395.61 7.74 396.02 8.50C396.07 8.60 396.12 8.65 396.12 8.81C396.12 10.50 396.10 12.18 395.98 12.18L395.26 12.18C395.04 12.18 395.00 12.19 395.00 12.39C395.00 12.63 395.01 12.68 395.21 12.68C395.40 12.68 396.21 12.64 396.80 12.64C397.63 12.64 398.16 12.68 398.48 12.68C398.65 12.68 398.68 12.61 398.68 12.40C398.68 12.24 398.65 12.18 398.48 12.18L397.52 12.18C397.42 12.18 397.39 9.72 397.39 8.22C397.39 8.18 397.39 8.15 397.43 8.09C397.98 7.22 399.92 3.70 399.99 3.70L400.47 3.70C400.64 3.70 400.74 3.68 400.74 3.44C400.74 3.22 400.65 3.19 400.47 3.19C400.25 3.19 400.01 3.23 399.41 3.23C398.82 3.23 398.48 3.19 398.31 3.19C398.12 3.19 398.08 3.25 398.08 3.49C398.08 3.68 398.15 3.70 398.37 3.70L399.10 3.70C399.11 3.70 399.13 3.71 399.13 3.74C399.13 4.05 397.56 6.99 397.18 7.71C397.07 7.92 397.07 7.88 396.96 7.67C396.55 6.89 395.26 4.56 394.97 3.85C394.91 3.71 394.90 3.70 395.08 3.70L395.91 3.70C396.13 3.70 396.16 3.68 396.16 3.49C396.16 3.25 396.12 3.19 395.96 3.19C395.72 3.19 395.11 3.23 394.31 3.23C393.50 3.23 393.01 3.19 392.83 3.19C392.64 3.19 392.57 3.21 392.57 3.44ZM418.22 8.15C418.22 11.17 420.56 12.80 422.81 12.80C425.60 12.80 427.57 10.89 427.57 8.06C427.57 5.33 425.82 3.11 423.02 3.11C420.42 3.11 418.22 5.10 418.22 8.15ZM419.62 7.77C419.62 5.64 420.91 3.58 422.88 3.58C425.12 3.58 426.20 5.81 426.20 7.94C426.20 10.08 425.10 12.32 422.83 12.32C420.84 12.32 419.62 10.28 419.62 7.77ZM435.68 3.51C435.68 3.72 435.75 3.79 435.95 3.79L436.76 3.77C436.86 3.77 436.90 6.61 436.90 8.55L436.90 10.42C436.90 11.30 436.88 12.18 436.84 12.18L436.24 12.18C436.02 12.18 435.95 12.19 435.95 12.39C435.95 12.63 435.99 12.68 436.18 12.68C436.31 12.68 437.14 12.64 437.56 12.64C437.98 12.64 438.75 12.68 439.07 12.68C439.24 12.68 439.26 12.61 439.26 12.40C439.26 12.24 439.24 12.18 439.07 12.18L438.26 12.18C438.19 12.18 438.10 9.18 438.10 8.37C438.10 8.30 438.10 8.26 438.21 8.26C438.61 8.26 439.21 8.27 439.50 8.27C441.74 8.32 441.88 10.00 441.88 11.68L441.88 12.49C441.88 12.61 441.94 12.64 442.04 12.64C442.04 12.64 443.48 12.68 443.95 12.68C444.12 12.68 444.18 12.64 444.18 12.53C444.18 12.24 444.12 12.18 443.97 12.18L443.32 12.18C443.23 12.18 443.20 12.14 443.17 11.31C443.09 8.99 441.71 8.34 440.80 8.05C440.66 8.01 440.69 8.01 440.80 7.95C441.39 7.69 442.71 6.94 442.71 5.63C442.71 3.63 441.01 3.21 439.61 3.21C439.29 3.21 438.00 3.29 437.58 3.29C437.16 3.29 436.18 3.26 435.96 3.26C435.78 3.26 435.68 3.28 435.68 3.51ZM438.10 7.80L438.10 4.40C438.10 4.05 438.13 3.68 438.17 3.68C438.38 3.65 438.66 3.65 438.89 3.65C440.19 3.65 441.43 4.47 441.43 5.82C441.43 6.99 440.89 7.57 440.23 7.88C440.19 7.90 440.15 7.90 440.08 7.90C439.60 7.88 438.89 7.88 438.28 7.87C438.12 7.87 438.10 7.85 438.10 7.80ZM451.58 12.46C451.58 12.63 451.60 12.70 451.78 12.70C451.93 12.70 453.17 12.64 453.56 12.64C454.41 12.64 455.29 12.70 456.15 12.70C458.77 12.70 461.16 11.07 461.16 7.91C461.16 4.89 458.82 3.07 455.78 3.07C455.22 3.07 453.96 3.23 452.93 3.23C452.45 3.23 451.99 3.22 451.93 3.22C451.75 3.22 451.74 3.32 451.74 3.49C451.74 3.68 451.81 3.70 451.93 3.70L452.90 3.67C452.93 3.67 452.93 4.20 452.93 4.72C452.93 5.91 452.84 12.21 452.76 12.21L451.86 12.21C451.68 12.21 451.58 12.22 451.58 12.46ZM454.16 11.40C454.16 9.46 454.16 7.52 454.17 5.60C454.17 5.03 454.22 3.61 454.26 3.60C454.55 3.53 455.14 3.51 455.49 3.51C458.05 3.51 459.66 5.75 459.66 7.73C459.66 8.95 459.62 12.25 454.94 12.25C454.68 12.25 454.27 12.25 454.17 12.21C454.16 12.19 454.16 11.79 454.16 11.40ZM469.27 12.39C469.27 12.63 469.29 12.68 469.49 12.68C469.81 12.68 470.78 12.64 471.20 12.64C471.62 12.64 476.13 12.68 476.45 12.68C476.57 12.68 476.73 12.66 476.73 12.49C476.73 12.07 476.77 11.23 476.77 10.53C476.77 10.39 476.62 10.39 476.49 10.39C476.38 10.39 476.25 10.39 476.25 10.51C476.24 11.06 476.24 11.41 476.21 11.76C476.18 12.01 476.18 12.04 476.08 12.04C475.93 12.04 473.30 12.08 471.80 12.08C471.73 12.08 471.69 10.11 471.65 8.26C471.65 8.06 471.69 8.09 471.83 8.09L474.11 8.09C474.81 8.09 474.84 8.20 474.84 8.30L474.84 9.00C474.84 9.14 475.02 9.14 475.13 9.14C475.23 9.14 475.36 9.13 475.36 9.02C475.36 8.83 475.33 8.33 475.33 7.83C475.33 7.32 475.36 6.83 475.36 6.71C475.36 6.59 475.22 6.58 475.12 6.58C475.01 6.58 474.84 6.59 474.84 6.72L474.84 7.45C474.84 7.62 474.39 7.63 474.11 7.63L471.77 7.63C471.66 7.63 471.65 7.63 471.65 7.45C471.63 6.75 471.62 6.06 471.62 5.46C471.62 5.12 471.62 3.71 471.70 3.71C472.93 3.71 475.44 3.75 475.44 3.81C475.44 3.99 475.40 4.83 475.40 4.89C475.40 5.04 475.47 5.10 475.65 5.10C475.85 5.10 475.92 5.08 475.92 4.94C475.92 3.85 475.97 3.36 475.97 3.09C475.97 2.91 475.89 2.90 475.69 2.90C475.50 2.90 475.50 2.95 475.47 3.11C475.45 3.25 475.52 3.25 474.61 3.25C474.00 3.25 471.86 3.29 471.09 3.29C470.60 3.29 469.66 3.25 469.56 3.25C469.43 3.25 469.38 3.30 469.38 3.49C469.38 3.72 469.45 3.74 469.62 3.74L470.27 3.74C470.33 3.74 470.40 4.79 470.40 5.71C470.40 5.80 470.46 8.27 470.46 9.83L470.46 11.17C470.46 11.84 470.43 12.18 470.40 12.18L469.55 12.18C469.32 12.18 469.27 12.21 469.27 12.39ZM484.74 3.51C484.74 3.72 484.81 3.79 485.00 3.79L485.81 3.77C485.91 3.77 485.95 6.61 485.95 8.55L485.95 10.42C485.95 11.30 485.94 12.18 485.90 12.18L485.30 12.18C485.07 12.18 485.00 12.19 485.00 12.39C485.00 12.63 485.04 12.68 485.24 12.68C485.37 12.68 486.19 12.64 486.61 12.64C487.03 12.64 487.80 12.68 488.12 12.68C488.29 12.68 488.32 12.61 488.32 12.40C488.32 12.24 488.29 12.18 488.12 12.18L487.31 12.18C487.24 12.18 487.16 9.18 487.16 8.37C487.16 8.30 487.16 8.26 487.27 8.26C487.66 8.26 488.26 8.27 488.56 8.27C490.80 8.32 490.94 10.00 490.94 11.68L490.94 12.49C490.94 12.61 490.99 12.64 491.09 12.64C491.09 12.64 492.53 12.68 493.01 12.68C493.18 12.68 493.23 12.64 493.23 12.53C493.23 12.24 493.18 12.18 493.02 12.18L492.38 12.18C492.28 12.18 492.25 12.14 492.23 11.31C492.14 8.99 490.77 8.34 489.86 8.05C489.72 8.01 489.75 8.01 489.86 7.95C490.45 7.69 491.76 6.94 491.76 5.63C491.76 3.63 490.07 3.21 488.67 3.21C488.35 3.21 487.06 3.29 486.64 3.29C486.22 3.29 485.24 3.26 485.02 3.26C484.83 3.26 484.74 3.28 484.74 3.51ZM487.16 7.80L487.16 4.40C487.16 4.05 487.19 3.68 487.23 3.68C487.44 3.65 487.72 3.65 487.94 3.65C489.24 3.65 490.49 4.47 490.49 5.82C490.49 6.99 489.94 7.57 489.29 7.88C489.24 7.90 489.20 7.90 489.13 7.90C488.66 7.88 487.94 7.88 487.34 7.87C487.17 7.87 487.16 7.85 487.16 7.80ZM500.71 12.39C500.71 12.63 500.74 12.68 500.93 12.68C501.26 12.68 502.22 12.64 502.64 12.64C503.06 12.64 507.57 12.68 507.89 12.68C508.02 12.68 508.17 12.66 508.17 12.49C508.17 12.07 508.21 11.23 508.21 10.53C508.21 10.39 508.06 10.39 507.93 10.39C507.82 10.39 507.70 10.39 507.70 10.51C507.68 11.06 507.68 11.41 507.65 11.76C507.63 12.01 507.63 12.04 507.53 12.04C507.37 12.04 504.74 12.08 503.24 12.08C503.17 12.08 503.13 10.11 503.09 8.26C503.09 8.06 503.13 8.09 503.27 8.09L505.55 8.09C506.25 8.09 506.28 8.20 506.28 8.30L506.28 9.00C506.28 9.14 506.46 9.14 506.58 9.14C506.67 9.14 506.80 9.13 506.80 9.02C506.80 8.83 506.77 8.33 506.77 7.83C506.77 7.32 506.80 6.83 506.80 6.71C506.80 6.59 506.66 6.58 506.56 6.58C506.45 6.58 506.28 6.59 506.28 6.72L506.28 7.45C506.28 7.62 505.83 7.63 505.55 7.63L503.22 7.63C503.10 7.63 503.09 7.63 503.09 7.45C503.08 6.75 503.06 6.06 503.06 5.46C503.06 5.12 503.06 3.71 503.15 3.71C504.38 3.71 506.88 3.75 506.88 3.81C506.88 3.99 506.84 4.83 506.84 4.89C506.84 5.04 506.91 5.10 507.09 5.10C507.29 5.10 507.36 5.08 507.36 4.94C507.36 3.85 507.42 3.36 507.42 3.09C507.42 2.91 507.33 2.90 507.14 2.90C506.94 2.90 506.94 2.95 506.91 3.11C506.90 3.25 506.97 3.25 506.06 3.25C505.44 3.25 503.30 3.29 502.53 3.29C502.04 3.29 501.10 3.25 501.00 3.25C500.88 3.25 500.82 3.30 500.82 3.49C500.82 3.72 500.89 3.74 501.06 3.74L501.72 3.74C501.77 3.74 501.84 4.79 501.84 5.71C501.84 5.80 501.90 8.27 501.90 9.83L501.90 11.17C501.90 11.84 501.87 12.18 501.84 12.18L500.99 12.18C500.77 12.18 500.71 12.21 500.71 12.39ZM516.11 12.46C516.11 12.63 516.12 12.70 516.31 12.70C516.46 12.70 517.69 12.64 518.08 12.64C518.94 12.64 519.82 12.70 520.67 12.70C523.29 12.70 525.69 11.07 525.69 7.91C525.69 4.89 523.35 3.07 520.31 3.07C519.75 3.07 518.49 3.23 517.45 3.23C516.98 3.23 516.52 3.22 516.46 3.22C516.28 3.22 516.26 3.32 516.26 3.49C516.26 3.68 516.33 3.70 516.46 3.70L517.43 3.67C517.45 3.67 517.45 4.20 517.45 4.72C517.45 5.91 517.37 12.21 517.29 12.21L516.39 12.21C516.21 12.21 516.11 12.22 516.11 12.46ZM518.69 11.40C518.69 9.46 518.69 7.52 518.70 5.60C518.70 5.03 518.74 3.61 518.78 3.60C519.08 3.53 519.67 3.51 520.02 3.51C522.58 3.51 524.19 5.75 524.19 7.73C524.19 8.95 524.15 12.25 519.47 12.25C519.20 12.25 518.80 12.25 518.70 12.21C518.69 12.19 518.69 11.79 518.69 11.40ZM533.37 14.55C533.37 14.64 533.44 14.83 533.57 14.83C533.74 14.83 535.18 13.45 535.18 12.25C535.18 11.86 534.39 11.33 534.14 11.33C534.04 11.33 533.43 11.66 533.43 11.93C533.43 12.21 534.35 12.45 534.35 13.08C534.35 13.78 533.37 14.42 533.37 14.55ZM553.01 12.39C553.01 12.63 553.04 12.68 553.24 12.68C553.56 12.68 554.53 12.64 554.95 12.64C555.37 12.64 559.72 12.68 560.04 12.68C560.31 12.68 560.38 12.66 560.39 12.49C560.45 12.08 560.69 10.72 560.69 10.60C560.69 10.47 560.53 10.44 560.36 10.43C560.27 10.42 560.18 10.46 560.17 10.56L560.00 11.76C559.96 12.05 559.94 12.03 559.72 12.04C559.57 12.05 557.06 12.12 555.63 12.12C555.59 12.12 555.55 11.38 555.55 10.54L555.55 6.66C555.55 5.40 555.56 3.70 555.66 3.70L556.64 3.70C556.88 3.70 556.91 3.63 556.91 3.44C556.91 3.23 556.89 3.19 556.65 3.19C556.33 3.19 555.39 3.23 554.97 3.23C554.55 3.23 553.62 3.19 553.39 3.19C553.17 3.19 553.11 3.22 553.11 3.44C553.11 3.65 553.15 3.70 553.35 3.70L554.18 3.70C554.22 3.70 554.25 4.23 554.25 4.90L554.25 8.13C554.25 10.07 554.22 12.18 554.13 12.18L553.29 12.18C553.07 12.18 553.01 12.21 553.01 12.39ZM568.16 12.39C568.16 12.63 568.20 12.68 568.40 12.68C568.72 12.68 569.48 12.64 570.19 12.64C570.85 12.64 571.65 12.68 571.87 12.68C572.04 12.68 572.07 12.61 572.07 12.40C572.07 12.24 572.04 12.18 571.87 12.18L570.91 12.18C570.81 12.18 570.78 9.55 570.78 7.76L570.78 5.87C570.78 5.14 570.81 3.70 570.91 3.70L571.82 3.70C572.04 3.70 572.07 3.68 572.07 3.49C572.07 3.25 572.04 3.19 571.87 3.19C571.55 3.19 570.88 3.23 570.22 3.23C569.41 3.23 568.69 3.19 568.47 3.19C568.29 3.19 568.22 3.21 568.22 3.44C568.22 3.68 568.30 3.70 568.47 3.70L569.39 3.70C569.44 3.70 569.51 4.79 569.51 5.71L569.51 7.08C569.51 8.92 569.49 12.18 569.38 12.18L568.46 12.18C568.23 12.18 568.16 12.19 568.16 12.39ZM580.17 5.77C580.17 9.07 585.16 8.20 585.16 10.65C585.16 11.59 584.32 12.31 583.34 12.31C582.51 12.31 580.92 11.83 580.89 11.47L580.80 10.15C580.79 9.97 580.72 9.91 580.54 9.91L580.47 9.91C580.26 9.91 580.26 10.00 580.26 10.12C580.26 10.32 580.37 11.66 580.40 12.17C580.41 12.38 581.67 12.85 583.21 12.85C584.78 12.85 586.39 11.87 586.39 10.11C586.39 6.79 581.42 7.87 581.42 5.32C581.42 4.31 582.20 3.56 583.24 3.56C584.26 3.56 585.35 4.58 585.35 4.89C585.35 5.01 585.31 5.73 585.31 5.78C585.31 5.92 585.35 5.99 585.62 5.99C585.86 5.99 585.87 5.94 585.87 5.75C585.87 5.04 585.96 3.68 585.96 3.53C585.96 3.30 585.91 3.29 585.65 3.29C585.42 3.29 585.41 3.32 585.40 3.53C585.40 3.61 585.38 3.78 585.34 3.78C585.28 3.78 585.20 3.74 585.13 3.68C584.33 3.14 583.72 3.08 583.21 3.08C581.69 3.08 580.17 4.17 580.17 5.77ZM593.95 5.01C593.95 5.17 594.13 5.17 594.26 5.17C594.41 5.17 594.45 5.15 594.47 4.97L594.58 3.89C594.59 3.81 595.14 3.75 595.90 3.75L597.88 3.75C597.94 3.75 597.97 4.35 597.97 4.97C597.97 6.43 597.91 12.18 597.79 12.18L596.92 12.18C596.69 12.18 596.65 12.19 596.65 12.39C596.65 12.63 596.67 12.68 596.86 12.68C597.18 12.68 598.16 12.64 598.58 12.64C599.00 12.64 599.94 12.68 600.26 12.68C600.43 12.68 600.46 12.61 600.46 12.40C600.46 12.24 600.43 12.18 600.26 12.18L599.27 12.18C599.24 12.18 599.24 11.76 599.24 11.31C599.24 9.56 599.33 5.96 599.33 5.92C599.34 5.18 599.34 3.75 599.44 3.75L601.05 3.75C601.76 3.75 602.59 3.78 602.59 3.85C602.59 3.99 602.55 4.90 602.55 4.97C602.55 5.12 602.62 5.17 602.80 5.17C602.99 5.17 603.06 5.17 603.06 5.03C603.06 3.93 603.12 3.40 603.12 3.14C603.12 2.94 603.04 2.94 602.84 2.94C602.69 2.94 602.63 2.98 602.62 3.16C602.62 3.23 601.97 3.28 601.13 3.28L596.13 3.28C595.48 3.28 594.66 3.28 594.66 3.21L594.66 3.07C594.66 2.94 594.54 2.94 594.44 2.94C594.22 2.94 594.19 3.00 594.17 3.19C594.12 3.89 593.95 4.97 593.95 5.01ZM620.75 8.15C620.75 11.17 623.08 12.80 625.34 12.80C628.12 12.80 630.10 10.89 630.10 8.06C630.10 5.33 628.35 3.11 625.55 3.11C622.94 3.11 620.75 5.10 620.75 8.15ZM622.15 7.77C622.15 5.64 623.43 3.58 625.41 3.58C627.65 3.58 628.73 5.81 628.73 7.94C628.73 10.08 627.62 12.32 625.35 12.32C623.36 12.32 622.15 10.28 622.15 7.77ZM638.20 3.49C638.20 3.72 638.32 3.74 638.48 3.74L639.10 3.74C639.16 3.74 639.23 4.79 639.23 5.71C639.23 5.80 639.28 8.27 639.28 9.83L639.28 11.17C639.28 11.84 639.27 12.18 639.21 12.18L638.62 12.18C638.40 12.18 638.33 12.19 638.33 12.39C638.33 12.63 638.34 12.68 638.54 12.68C638.75 12.68 639.59 12.64 640.01 12.64C640.43 12.64 641.37 12.68 641.69 12.68C641.86 12.68 641.89 12.61 641.89 12.40C641.89 12.24 641.86 12.18 641.69 12.18L640.56 12.18C640.50 12.18 640.51 10.16 640.47 8.33C640.47 8.08 640.46 8.09 640.65 8.09L643.08 8.09C643.78 8.09 643.80 8.19 643.80 8.30L643.80 9.16C643.80 9.28 643.99 9.28 644.10 9.28C644.20 9.28 644.32 9.28 644.32 9.17C644.32 8.99 644.29 8.33 644.29 7.83C644.29 7.32 644.32 6.82 644.32 6.69C644.32 6.58 644.21 6.58 644.08 6.58C643.92 6.58 643.80 6.58 643.80 6.71L643.80 7.45C643.80 7.62 643.36 7.63 643.08 7.63L640.65 7.63C640.44 7.63 640.47 7.66 640.47 7.45C640.46 7.13 640.44 6.15 640.44 5.26C640.44 4.52 640.46 3.71 640.53 3.71C641.93 3.71 644.11 3.75 644.41 3.79C644.41 3.96 644.36 4.82 644.36 4.89C644.36 5.04 644.43 5.10 644.62 5.10C644.81 5.10 644.88 5.08 644.88 4.94C644.88 3.85 644.94 3.36 644.94 3.09C644.94 2.93 644.85 2.90 644.66 2.90C644.53 2.90 644.46 2.90 644.43 3.11C644.42 3.25 644.49 3.25 643.54 3.25C642.94 3.25 640.65 3.29 639.91 3.29C639.42 3.29 638.48 3.25 638.39 3.25C638.26 3.25 638.20 3.30 638.20 3.49ZM662.70 12.39C662.70 12.63 662.72 12.68 662.91 12.68C663.10 12.68 663.47 12.64 664.09 12.64C664.72 12.64 665.28 12.68 665.60 12.68C665.77 12.68 665.77 12.61 665.77 12.40C665.77 12.24 665.77 12.18 665.60 12.18L664.40 12.18C664.36 12.18 664.34 11.54 664.34 10.79C664.34 9.46 664.36 7.48 664.36 5.99C664.36 5.25 664.36 4.84 664.37 4.28C664.37 4.02 664.44 4.14 664.57 4.28L671.45 12.66C671.54 12.75 671.62 12.89 671.73 12.89C671.85 12.89 671.92 12.77 671.92 12.54C671.92 12.39 672.08 6.65 672.10 4.48C672.10 4.06 672.13 3.70 672.15 3.70L672.78 3.70C673.01 3.70 673.06 3.68 673.06 3.49C673.06 3.25 673.06 3.19 672.87 3.19C672.67 3.19 672.24 3.23 671.68 3.23C671.06 3.23 670.26 3.19 670.17 3.19C670.00 3.19 670.00 3.26 670.00 3.47C670.00 3.64 670.00 3.70 670.17 3.70L671.47 3.70C671.48 3.70 671.48 4.33 671.48 4.44C671.48 5.85 671.51 8.33 671.51 9.70L671.51 10.29C671.51 10.57 671.50 10.65 671.27 10.37L665.59 3.39C665.48 3.25 665.45 3.19 665.28 3.19C665.20 3.19 664.82 3.23 664.51 3.23C664.22 3.23 663.14 3.19 662.94 3.19C662.77 3.19 662.75 3.26 662.75 3.47C662.75 3.64 662.77 3.70 662.94 3.70L663.85 3.70C663.85 4.17 663.81 8.53 663.74 10.79C663.71 11.69 663.73 12.18 663.61 12.18L662.97 12.18C662.75 12.18 662.70 12.19 662.70 12.39ZM681.17 8.15C681.17 11.17 683.51 12.80 685.76 12.80C688.55 12.80 690.52 10.89 690.52 8.06C690.52 5.33 688.77 3.11 685.97 3.11C683.37 3.11 681.17 5.10 681.17 8.15ZM682.57 7.77C682.57 5.64 683.86 3.58 685.83 3.58C688.07 3.58 689.15 5.81 689.15 7.94C689.15 10.08 688.04 12.32 685.78 12.32C683.79 12.32 682.57 10.28 682.57 7.77ZM697.80 5.01C697.80 5.17 697.98 5.17 698.11 5.17C698.26 5.17 698.31 5.15 698.32 4.97L698.43 3.89C698.45 3.81 698.99 3.75 699.75 3.75L701.74 3.75C701.79 3.75 701.82 4.35 701.82 4.97C701.82 6.43 701.76 12.18 701.64 12.18L700.77 12.18C700.55 12.18 700.50 12.19 700.50 12.39C700.50 12.63 700.52 12.68 700.71 12.68C701.04 12.68 702.02 12.64 702.44 12.64C702.86 12.64 703.79 12.68 704.12 12.68C704.28 12.68 704.31 12.61 704.31 12.40C704.31 12.24 704.28 12.18 704.12 12.18L703.12 12.18C703.09 12.18 703.09 11.76 703.09 11.31C703.09 9.56 703.18 5.96 703.18 5.92C703.19 5.18 703.19 3.75 703.29 3.75L704.90 3.75C705.61 3.75 706.44 3.78 706.44 3.85C706.44 3.99 706.40 4.90 706.40 4.97C706.40 5.12 706.47 5.17 706.65 5.17C706.85 5.17 706.92 5.17 706.92 5.03C706.92 3.93 706.97 3.40 706.97 3.14C706.97 2.94 706.89 2.94 706.69 2.94C706.54 2.94 706.48 2.98 706.47 3.16C706.47 3.23 705.82 3.28 704.98 3.28L699.99 3.28C699.33 3.28 698.52 3.28 698.52 3.21L698.52 3.07C698.52 2.94 698.39 2.94 698.29 2.94C698.07 2.94 698.04 3.00 698.03 3.19C697.97 3.89 697.80 4.97 697.80 5.01ZM712.77 12.39C712.77 12.63 712.77 12.68 712.96 12.68C713.13 12.68 713.45 12.64 714.03 12.64C714.64 12.64 715.19 12.68 715.34 12.68C715.51 12.68 715.51 12.61 715.51 12.40C715.51 12.24 715.51 12.18 715.34 12.18L714.27 12.18C714.27 12.18 714.25 12.18 714.25 12.17C714.27 11.87 715.04 9.90 715.39 9.02C715.46 8.83 715.47 8.79 715.68 8.79L718.51 8.79C718.65 8.79 718.65 8.81 718.72 9.03C718.98 9.77 719.70 11.89 719.70 12.17C719.70 12.18 719.68 12.18 719.68 12.18L718.91 12.18C718.69 12.18 718.68 12.19 718.68 12.39C718.68 12.63 718.69 12.68 718.86 12.68C719.18 12.68 720.05 12.64 720.47 12.64C720.89 12.64 721.56 12.68 721.77 12.68C721.91 12.68 721.92 12.61 721.92 12.40C721.92 12.24 721.91 12.18 721.77 12.18L721.28 12.18C721.18 12.18 720.16 9.34 719.60 7.78L717.92 3.07C717.91 3.00 717.84 2.94 717.75 2.94C717.63 2.94 717.53 3.16 717.44 3.35C717.29 3.71 717.05 3.84 716.94 4.13L715.46 7.57C715.27 8.01 713.57 12.18 713.44 12.18L713.02 12.18C712.80 12.18 712.77 12.19 712.77 12.39ZM715.67 8.33C715.67 8.30 715.69 8.23 715.74 8.13L717.11 4.77C717.15 4.66 717.18 4.61 717.21 4.61C717.22 4.61 717.23 4.63 717.28 4.77L718.44 8.18C718.47 8.25 718.48 8.29 718.48 8.32C718.48 8.36 718.45 8.37 718.35 8.37L715.85 8.37C715.67 8.37 715.67 8.34 715.67 8.33ZM729.68 3.51C729.68 3.75 729.76 3.79 729.93 3.79L730.79 3.77C730.84 3.77 730.90 5.52 730.90 7.11L730.90 11.63C730.90 11.93 730.88 12.18 730.86 12.18L730.13 12.18C729.90 12.18 729.83 12.19 729.83 12.39C729.83 12.63 729.86 12.68 730.06 12.68C730.18 12.68 731.14 12.64 731.56 12.64C731.74 12.64 732.26 12.67 732.90 12.67C734.45 12.67 736.86 12.43 736.86 10.23C736.86 8.27 735.04 7.94 734.36 7.84C734.27 7.83 734.26 7.83 734.26 7.81C734.26 7.80 734.30 7.78 734.37 7.76C735.01 7.52 736.46 6.90 736.46 5.54C736.46 3.81 734.99 3.25 733.31 3.25C732.73 3.25 732.13 3.29 731.58 3.29C731.16 3.29 730.16 3.26 729.93 3.26C729.75 3.26 729.68 3.28 729.68 3.51ZM732.13 8.19C732.13 8.12 732.13 8.08 732.24 8.08L732.72 8.08C733.33 8.08 733.98 8.09 734.36 8.22C735.22 8.51 735.55 9.16 735.55 10.14C735.55 11.17 735.08 12.18 733.07 12.18L732.23 12.18C732.14 12.18 732.13 9.02 732.13 8.19ZM732.13 7.59L732.13 6.92C732.13 5.87 732.14 3.71 732.19 3.68C732.24 3.65 732.55 3.63 732.76 3.63C734.17 3.63 735.20 4.41 735.20 5.77C735.20 6.92 734.47 7.46 733.84 7.66C733.75 7.69 733.66 7.70 733.57 7.70C733.49 7.70 733.35 7.69 733.11 7.69L732.31 7.69C732.13 7.69 732.13 7.67 732.13 7.59ZM744.97 12.39C744.97 12.63 745.00 12.68 745.19 12.68C745.51 12.68 746.48 12.64 746.90 12.64C747.32 12.64 751.67 12.68 752.00 12.68C752.26 12.68 752.33 12.66 752.35 12.49C752.40 12.08 752.64 10.72 752.64 10.60C752.64 10.47 752.49 10.44 752.32 10.43C752.22 10.42 752.14 10.46 752.12 10.56L751.95 11.76C751.91 12.05 751.90 12.03 751.67 12.04C751.52 12.05 749.01 12.12 747.59 12.12C747.54 12.12 747.50 11.38 747.50 10.54L747.50 6.66C747.50 5.40 747.52 3.70 747.61 3.70L748.59 3.70C748.83 3.70 748.86 3.63 748.86 3.44C748.86 3.23 748.85 3.19 748.61 3.19C748.29 3.19 747.35 3.23 746.93 3.23C746.51 3.23 745.57 3.19 745.35 3.19C745.12 3.19 745.07 3.22 745.07 3.44C745.07 3.65 745.11 3.70 745.30 3.70L746.13 3.70C746.17 3.70 746.20 4.23 746.20 4.90L746.20 8.13C746.20 10.07 746.17 12.18 746.09 12.18L745.25 12.18C745.02 12.18 744.97 12.21 744.97 12.39ZM760.26 12.39C760.26 12.63 760.28 12.68 760.48 12.68C760.80 12.68 761.77 12.64 762.19 12.64C762.61 12.64 767.12 12.68 767.44 12.68C767.56 12.68 767.72 12.66 767.72 12.49C767.72 12.07 767.76 11.23 767.76 10.53C767.76 10.39 767.61 10.39 767.48 10.39C767.37 10.39 767.24 10.39 767.24 10.51C767.23 11.06 767.23 11.41 767.20 11.76C767.17 12.01 767.17 12.04 767.07 12.04C766.92 12.04 764.29 12.08 762.79 12.08C762.72 12.08 762.68 10.11 762.64 8.26C762.64 8.06 762.68 8.09 762.82 8.09L765.10 8.09C765.80 8.09 765.83 8.20 765.83 8.30L765.83 9.00C765.83 9.14 766.01 9.14 766.12 9.14C766.22 9.14 766.35 9.13 766.35 9.02C766.35 8.83 766.32 8.33 766.32 7.83C766.32 7.32 766.35 6.83 766.35 6.71C766.35 6.59 766.21 6.58 766.11 6.58C766.00 6.58 765.83 6.59 765.83 6.72L765.83 7.45C765.83 7.62 765.38 7.63 765.10 7.63L762.76 7.63C762.65 7.63 762.64 7.63 762.64 7.45C762.62 6.75 762.61 6.06 762.61 5.46C762.61 5.12 762.61 3.71 762.69 3.71C763.92 3.71 766.43 3.75 766.43 3.81C766.43 3.99 766.39 4.83 766.39 4.89C766.39 5.04 766.46 5.10 766.64 5.10C766.84 5.10 766.91 5.08 766.91 4.94C766.91 3.85 766.96 3.36 766.96 3.09C766.96 2.91 766.88 2.90 766.68 2.90C766.49 2.90 766.49 2.95 766.46 3.11C766.44 3.25 766.51 3.25 765.60 3.25C764.99 3.25 762.85 3.29 762.08 3.29C761.59 3.29 760.65 3.25 760.55 3.25C760.42 3.25 760.37 3.30 760.37 3.49C760.37 3.72 760.44 3.74 760.61 3.74L761.26 3.74C761.32 3.74 761.39 4.79 761.39 5.71C761.39 5.80 761.45 8.27 761.45 9.83L761.45 11.17C761.45 11.84 761.42 12.18 761.39 12.18L760.54 12.18C760.31 12.18 760.26 12.21 760.26 12.39ZM785.60 7.91C785.60 11.31 787.96 12.87 790.55 12.87C792.33 12.87 794.11 11.90 794.15 11.59C794.32 10.29 794.37 9.70 794.37 9.66C794.37 9.56 794.33 9.52 794.16 9.51C794.11 9.51 794.05 9.49 794.01 9.49C793.90 9.49 793.84 9.53 793.81 9.70L793.63 11.33C793.62 11.45 792.51 12.24 790.94 12.24C788.82 12.24 787.11 10.29 787.11 7.94C787.11 5.42 788.54 3.54 790.54 3.54C792.39 3.54 793.73 5.01 793.73 5.17C793.73 5.29 793.67 6.40 793.67 6.45C793.67 6.59 793.72 6.64 793.98 6.64C794.18 6.64 794.25 6.62 794.25 6.44C794.25 5.73 794.30 3.92 794.30 3.67C794.30 3.47 794.19 3.44 793.98 3.44C793.76 3.44 793.73 3.50 793.73 3.67L793.73 4.05C793.73 4.16 793.69 4.16 793.56 4.06C793.28 3.86 792.30 3.04 790.64 3.04C787.79 3.04 785.60 4.96 785.60 7.91ZM802.76 12.39C802.76 12.63 802.76 12.68 802.96 12.68C803.28 12.68 804.22 12.64 804.64 12.64C805.06 12.64 805.88 12.68 806.20 12.68C806.37 12.68 806.37 12.61 806.37 12.40C806.37 12.24 806.37 12.18 806.20 12.18L805.28 12.18C805.20 12.18 805.15 9.93 805.15 8.20C805.15 8.01 805.15 8.01 805.28 8.01L810.52 8.01C810.59 8.01 810.60 8.01 810.60 8.18L810.60 9.91C810.60 11.05 810.59 12.18 810.53 12.18L809.76 12.18C809.54 12.18 809.49 12.19 809.49 12.39C809.49 12.63 809.51 12.68 809.70 12.68C810.03 12.68 810.87 12.64 811.29 12.64C811.71 12.64 812.29 12.68 812.62 12.68C812.78 12.68 812.80 12.61 812.80 12.40C812.80 12.24 812.78 12.18 812.62 12.18L811.87 12.18C811.83 12.18 811.82 9.27 811.82 7.04C811.82 5.40 811.82 3.70 811.86 3.70L812.48 3.70C812.70 3.70 812.74 3.68 812.74 3.49C812.74 3.25 812.73 3.19 812.53 3.19C812.39 3.19 811.76 3.23 811.17 3.23C810.50 3.23 809.90 3.19 809.68 3.19C809.48 3.19 809.45 3.22 809.45 3.44C809.45 3.67 809.52 3.70 809.69 3.70L810.49 3.70C810.54 3.70 810.60 4.79 810.60 5.71L810.60 7.42C810.60 7.59 810.60 7.59 810.43 7.59L805.32 7.59C805.15 7.59 805.15 7.59 805.15 7.38C805.15 6.96 805.14 6.23 805.14 5.53C805.14 4.66 805.15 3.70 805.21 3.70L805.98 3.70C806.20 3.70 806.25 3.68 806.25 3.49C806.25 3.25 806.23 3.19 806.04 3.19C805.71 3.19 805.13 3.23 804.52 3.23C803.94 3.23 803.45 3.19 803.22 3.19C803.04 3.19 802.94 3.21 802.94 3.44C802.94 3.68 803.05 3.70 803.22 3.70L803.84 3.70C803.89 3.70 803.91 5.59 803.91 7.18L803.91 8.61C803.91 10.08 803.89 12.18 803.82 12.18L803.01 12.18C802.79 12.18 802.76 12.19 802.76 12.39ZM820.69 12.39C820.69 12.63 820.69 12.68 820.89 12.68C821.06 12.68 821.38 12.64 821.95 12.64C822.57 12.64 823.12 12.68 823.27 12.68C823.44 12.68 823.44 12.61 823.44 12.40C823.44 12.24 823.44 12.18 823.27 12.18L822.19 12.18C822.19 12.18 822.18 12.18 822.18 12.17C822.19 11.87 822.96 9.90 823.31 9.02C823.38 8.83 823.40 8.79 823.61 8.79L826.43 8.79C826.57 8.79 826.57 8.81 826.64 9.03C826.91 9.77 827.62 11.89 827.62 12.17C827.62 12.18 827.61 12.18 827.61 12.18L826.84 12.18C826.62 12.18 826.60 12.19 826.60 12.39C826.60 12.63 826.62 12.68 826.78 12.68C827.11 12.68 827.97 12.64 828.39 12.64C828.81 12.64 829.49 12.68 829.70 12.68C829.84 12.68 829.85 12.61 829.85 12.40C829.85 12.24 829.84 12.18 829.70 12.18L829.21 12.18C829.11 12.18 828.09 9.34 827.53 7.78L825.85 3.07C825.83 3.00 825.76 2.94 825.68 2.94C825.55 2.94 825.45 3.16 825.37 3.35C825.22 3.71 824.98 3.84 824.87 4.13L823.38 7.57C823.20 8.01 821.49 12.18 821.37 12.18L820.95 12.18C820.72 12.18 820.69 12.19 820.69 12.39ZM823.59 8.33C823.59 8.30 823.62 8.23 823.66 8.13L825.03 4.77C825.08 4.66 825.10 4.61 825.13 4.61C825.15 4.61 825.16 4.63 825.20 4.77L826.36 8.18C826.39 8.25 826.41 8.29 826.41 8.32C826.41 8.36 826.38 8.37 826.28 8.37L823.77 8.37C823.59 8.37 823.59 8.34 823.59 8.33ZM837.61 12.39C837.61 12.63 837.62 12.68 837.82 12.68C838.00 12.68 838.38 12.64 838.99 12.64C839.62 12.64 840.18 12.68 840.50 12.68C840.67 12.68 840.67 12.61 840.67 12.40C840.67 12.24 840.67 12.18 840.50 12.18L839.30 12.18C839.26 12.18 839.24 11.54 839.24 10.79C839.24 9.46 839.26 7.48 839.26 5.99C839.26 5.25 839.26 4.84 839.27 4.28C839.27 4.02 839.34 4.14 839.47 4.28L846.36 12.66C846.44 12.75 846.52 12.89 846.64 12.89C846.75 12.89 846.82 12.77 846.82 12.54C846.82 12.39 846.99 6.65 847.00 4.48C847.00 4.06 847.03 3.70 847.06 3.70L847.69 3.70C847.91 3.70 847.97 3.68 847.97 3.49C847.97 3.25 847.97 3.19 847.77 3.19C847.57 3.19 847.14 3.23 846.58 3.23C845.96 3.23 845.17 3.19 845.07 3.19C844.90 3.19 844.90 3.26 844.90 3.47C844.90 3.64 844.90 3.70 845.07 3.70L846.37 3.70C846.38 3.70 846.38 4.33 846.38 4.44C846.38 5.85 846.41 8.33 846.41 9.70L846.41 10.29C846.41 10.57 846.40 10.65 846.17 10.37L840.49 3.39C840.38 3.25 840.35 3.19 840.18 3.19C840.10 3.19 839.72 3.23 839.41 3.23C839.12 3.23 838.04 3.19 837.84 3.19C837.68 3.19 837.65 3.26 837.65 3.47C837.65 3.64 837.68 3.70 837.84 3.70L838.75 3.70C838.75 4.17 838.71 8.53 838.64 10.79C838.61 11.69 838.63 12.18 838.52 12.18L837.87 12.18C837.65 12.18 837.61 12.19 837.61 12.39ZM856.07 7.91C856.07 11.40 858.44 12.89 861.03 12.89C862.92 12.89 864.92 11.89 864.92 11.58C864.92 11.12 864.93 10.68 864.93 10.33C864.93 9.81 864.95 9.56 865.07 9.56L865.51 9.56C865.65 9.56 865.66 9.39 865.66 9.30C865.66 9.18 865.65 9.06 865.51 9.06C865.28 9.06 864.92 9.10 864.25 9.10C863.80 9.10 863.06 9.07 862.37 9.06C862.23 9.06 862.23 9.24 862.23 9.35C862.23 9.45 862.26 9.56 862.39 9.56L863.60 9.56C863.65 9.56 863.70 9.87 863.70 10.33C863.70 10.82 863.69 11.41 863.66 11.65C863.65 11.76 863.00 12.39 861.42 12.39C859.18 12.39 857.58 10.29 857.58 7.94C857.58 5.42 859.14 3.54 861.14 3.54C863.03 3.54 864.21 4.87 864.21 5.03C864.21 5.15 864.15 6.12 864.15 6.17C864.15 6.31 864.19 6.36 864.46 6.36C864.65 6.36 864.72 6.33 864.72 6.15C864.72 5.43 864.77 3.75 864.77 3.56C864.77 3.36 864.67 3.33 864.46 3.33C864.23 3.33 864.21 3.39 864.21 3.56L864.21 3.91C864.21 3.99 864.16 4.02 864.04 3.92C863.76 3.72 862.76 3.08 861.20 3.08C858.35 3.08 856.07 4.79 856.07 7.91ZM873.70 12.39C873.70 12.63 873.73 12.68 873.92 12.68C874.24 12.68 875.21 12.64 875.63 12.64C876.05 12.64 880.56 12.68 880.88 12.68C881.01 12.68 881.16 12.66 881.16 12.49C881.16 12.07 881.20 11.23 881.20 10.53C881.20 10.39 881.05 10.39 880.92 10.39C880.81 10.39 880.68 10.39 880.68 10.51C880.67 11.06 880.67 11.41 880.64 11.76C880.61 12.01 880.61 12.04 880.52 12.04C880.36 12.04 877.73 12.08 876.23 12.08C876.16 12.08 876.12 10.11 876.08 8.26C876.08 8.06 876.12 8.09 876.26 8.09L878.54 8.09C879.24 8.09 879.27 8.20 879.27 8.30L879.27 9.00C879.27 9.14 879.45 9.14 879.56 9.14C879.66 9.14 879.79 9.13 879.79 9.02C879.79 8.83 879.76 8.33 879.76 7.83C879.76 7.32 879.79 6.83 879.79 6.71C879.79 6.59 879.65 6.58 879.55 6.58C879.44 6.58 879.27 6.59 879.27 6.72L879.27 7.45C879.27 7.62 878.82 7.63 878.54 7.63L876.20 7.63C876.09 7.63 876.08 7.63 876.08 7.45C876.06 6.75 876.05 6.06 876.05 5.46C876.05 5.12 876.05 3.71 876.13 3.71C877.37 3.71 879.87 3.75 879.87 3.81C879.87 3.99 879.83 4.83 879.83 4.89C879.83 5.04 879.90 5.10 880.08 5.10C880.28 5.10 880.35 5.08 880.35 4.94C880.35 3.85 880.40 3.36 880.40 3.09C880.40 2.91 880.32 2.90 880.12 2.90C879.93 2.90 879.93 2.95 879.90 3.11C879.89 3.25 879.96 3.25 879.05 3.25C878.43 3.25 876.29 3.29 875.52 3.29C875.03 3.29 874.09 3.25 873.99 3.25C873.87 3.25 873.81 3.30 873.81 3.49C873.81 3.72 873.88 3.74 874.05 3.74L874.71 3.74C874.76 3.74 874.83 4.79 874.83 5.71C874.83 5.80 874.89 8.27 874.89 9.83L874.89 11.17C874.89 11.84 874.86 12.18 874.83 12.18L873.98 12.18C873.75 12.18 873.70 12.21 873.70 12.39ZM889.38 5.77C889.38 9.07 894.36 8.20 894.36 10.65C894.36 11.59 893.52 12.31 892.54 12.31C891.72 12.31 890.12 11.83 890.09 11.47L890.01 10.15C889.99 9.97 889.92 9.91 889.74 9.91L889.67 9.91C889.46 9.91 889.46 10.00 889.46 10.12C889.46 10.32 889.57 11.66 889.60 12.17C889.62 12.38 890.88 12.85 892.42 12.85C893.98 12.85 895.59 11.87 895.59 10.11C895.59 6.79 890.62 7.87 890.62 5.32C890.62 4.31 891.41 3.56 892.44 3.56C893.47 3.56 894.56 4.58 894.56 4.89C894.56 5.01 894.52 5.73 894.52 5.78C894.52 5.92 894.56 5.99 894.82 5.99C895.06 5.99 895.08 5.94 895.08 5.75C895.08 5.04 895.16 3.68 895.16 3.53C895.16 3.30 895.12 3.29 894.85 3.29C894.63 3.29 894.61 3.32 894.60 3.53C894.60 3.61 894.59 3.78 894.54 3.78C894.49 3.78 894.40 3.74 894.33 3.68C893.54 3.14 892.92 3.08 892.42 3.08C890.89 3.08 889.38 4.17 889.38 5.77ZM903.84 12.07C903.84 12.31 904.29 12.75 904.71 12.75C904.89 12.75 905.34 12.35 905.34 11.90C905.34 11.51 904.76 11.20 904.50 11.20C904.23 11.20 903.84 11.76 903.84 12.07Z"></path></g></svg>